<svg xmlns:svg="http://www.w3.org/2000/svg" xmlns="http://www.w3.org/2000/svg" width="300" height="300">
  <path style="fill:#fff;stroke:none" 
     d="M 67.09,208.21 232.91,208.21 C 245.37,208.21 255.39,218.22 255.39,230.64 255.39,243.08 245.37,253.09 232.91,253.09 L 67.09,253.09 C 54.63,253.09 44.61,243.08 44.61,230.64 44.61,218.22 54.63,208.21 67.09,208.21 z M 67.09,100.39 232.91,100.39 C 245.37,100.39 255.39,110.4 255.39,122.85 255.39,135.26 245.37,145.27 232.91,145.27 L 67.09,145.27 C 54.63,145.27 44.61,135.26 44.61,122.85 44.61,110.4 54.63,100.39 67.09,100.39 z M 67.09,154.73 232.91,154.73 C 245.37,154.73 255.39,164.73 255.39,177.15 255.39,189.6 245.37,199.6 232.91,199.6 L 67.09,199.6 C 54.63,199.6 44.61,189.6 44.61,177.15 44.61,164.73 54.63,154.73 67.09,154.73 z M 67.09,46.91 232.91,46.91 C 245.37,46.91 255.39,56.92 255.39,69.36 255.39,81.78 245.37,91.79 232.91,91.79 L 67.09,91.79 C 54.63,91.79 44.61,81.78 44.61,69.36 44.61,56.92 54.63,46.91 67.09,46.91 z" />
</svg>
