<svg xmlns:svg="http://www.w3.org/2000/svg" xmlns="http://www.w3.org/2000/svg" width="300" height="300" >
  <path style="fill:#fff;stroke:none"
     d="M 247.99,77.19 C 247.99,86.46 240.45,94.01 231.18,94.01 H 68.82 C 59.56,94.01 52.01,86.46 52.01,77.19 V 75.56 C 52.01,66.28 59.56,58.74 68.82,58.74 H 231.18 C 240.45,58.74 247.99,66.28 247.99,75.56 V 77.19 z M 227.78,257.98 C 227.78,267.26 220.24,274.8 210.97,274.8 H 89.03 C 79.76,274.8 72.22,267.26 72.22,257.98 V 109.18 H 227.78 V 257.98 z M 150.0,25.2 C 161.04,25.2 170.26,33.12 172.3,43.57 H 127.71 C 129.74,33.12 138.96,25.2 150.0,25.2 z M 231.18,43.57 H 187.62 C 185.44,24.73 169.42,10.03 150.0,10.03 130.58,10.03 114.56,24.73 112.38,43.57 H 68.82 C 51.2,43.57 36.86,57.92 36.86,75.56 V 77.19 C 36.86,90.67 45.25,102.2 57.06,106.9 V 257.98 C 57.06,275.62 71.4,289.97 89.03,289.97 H 210.97 C 228.6,289.97 242.94,275.62 242.94,257.98 V 106.9 C 254.76,102.2 263.14,90.67 263.14,77.2 V 75.56 C 263.14,57.92 248.8,43.57 231.18,43.57 z M 109.35,255.4 C 113.54,255.4 116.93,252.01 116.93,247.82 V 162.43 C 116.93,158.25 113.54,154.85 109.35,154.85 105.17,154.85 101.77,158.25 101.77,162.43 V 247.82 C 101.77,252.01 105.17,255.4 109.35,255.4 z M 150.0,255.4 C 154.19,255.4 157.58,252.01 157.58,247.82 V 162.43 C 157.58,158.25 154.19,154.85 150.0,154.85 145.82,154.85 142.42,158.25 142.42,162.43 V 247.82 C 142.42,252.01 145.82,255.4 150.0,255.4 z M 190.64,255.4 C 194.83,255.4 198.22,252.01 198.22,247.82 V 162.43 C 198.22,158.25 194.83,154.85 190.64,154.85 186.46,154.85 183.06,158.25 183.06,162.43 V 247.82 C 183.06,252.01 186.46,255.4 190.64,255.4 z" />
</svg>
