<svg xmlns:svg="http://www.w3.org/2000/svg" xmlns="http://www.w3.org/2000/svg" height="300" width="300">
  <path
     style="fill:#fff;stroke:none"
     d="M 263.4,138.64 C 222.59,108.07 200.0,78.79 163.46,36.82 163.46,36.82 127.29,82.69 112.36,107.6 L 186.58,188.99 C 188.36,191.38 171.53,175.26 149.19,153.17 110.13,114.51 108.4,113.14 104.72,117.2 102.64,119.53 100.91,122.35 100.91,123.5 100.91,125.4 175.46,201.25 177.33,201.25 206.91,178.47 230.52,160.98 263.4,138.64 z M 84.88,253.58 116.23,245.3 138.84,217.94 161.49,190.61 136.1,165.31 110.71,139.98 83.78,160.76 C 68.99,172.19 56.53,181.84 56.09,182.2 55.65,182.58 50.9,200.37 45.52,221.75 L 36.6,257.28 C 44.28,255.86 74.72,218.96 74.72,218.96 72.5,215.37 78.57,208.02 83.78,208.02 91.63,208.02 95.39,213.58 92.26,220.52 90.42,224.52 87.93,226.09 83.4,226.09 78.48,226.09 72.91,230.33 57.95,245.49 35.86,267.92 33.41,267.18 84.88,253.58 z" />
</svg>
