<svg xmlns:svg="http://www.w3.org/2000/svg" xmlns="http://www.w3.org/2000/svg" height="300" width="300" >
  <path style="fill:#fff;stroke:none"
     d="M 172.69,177.91 C 170.74,177.98 168.8,178.26 166.88,178.78 153.38,182.41 145.25,192.73 145.25,206.19 145.25,227.39 166.67,241.31 185.5,232.38 199.8,225.59 205.9,207.57 198.69,193.44 193.63,183.52 183.23,177.53 172.69,177.91 z M 93.75,162.97 C 84.86,162.97 78.97,166.7 75.75,174.41 72.66,181.81 75.17,191.45 81.47,196.41 86.47,200.34 97.6,201.25 103.31,198.19 108.01,195.67 112.03,187.25 112.03,179.94 112.03,170.78 103.6,162.97 93.75,162.97 z M 88.28,107.09 C 78.8,107.12 69.69,114.74 69.69,126.5 69.69,131.93 70.93,134.59 75.69,139.34 82.36,146.02 89.34,147.13 97.63,142.84 108.04,137.46 110.27,123.35 102.22,113.78 98.32,109.15 93.25,107.08 88.28,107.09 z M 187.59,73.78 C 185.84,73.83 184.0,74.12 182.13,74.69 170.59,78.14 165.5,90.4 171.09,101.22 176.97,112.59 190.4,115.42 200.03,107.31 214.49,95.14 204.5,73.3 187.59,73.78 z M 130.03,67.56 C 125.64,67.72 121.3,69.32 118.06,72.53 109.95,79.76 109.72,93.91 118.22,100.94 123.16,105.41 131.18,107.93 137.22,104.13 148.59,100.72 154.04,85.29 146.66,75.75 143.03,70.24 136.45,67.34 130.03,67.56 z M 162.47,36.94 C 119.16,37.36 76.11,60.18 52.78,96.88 33.29,126.78 31.26,167.03 48.47,198.44 70.12,239.96 117.44,263.53 163.34,263.06 194.83,263.15 227.41,253.9 251.47,233.0 261.3,225.41 260.62,207.85 248.88,202.59 238.32,198.19 223.12,197.33 219.5,184.19 216.62,171.55 230.41,164.19 237.25,155.78 252.11,141.95 266.13,123.07 262.72,101.59 259.72,73.44 235.94,52.72 210.47,43.84 196.54,38.25 181.55,36.89 166.66,37.0 165.26,36.97 163.87,36.92 162.47,36.94 z M 171.59,46.16 C 195.54,46.14 219.8,53.91 237.28,70.38 L 237.28,70.47 C 253.45,85.42 260.25,112.49 246.66,131.03 L 246.66,131.13 246.56,131.22 C 237.44,145.98 220.9,155.59 211.56,171.75 L 211.56,171.91 211.47,172.06 C 208.54,179.65 210.07,187.47 214.13,193.75 218.17,200.03 224.68,204.88 231.97,206.69 L 232.16,206.69 232.31,206.69 C 236.87,206.92 243.07,209.24 246.56,212.5 248.31,214.13 249.34,215.92 249.56,217.75 249.78,219.54 249.28,221.59 247.34,224.0 232.97,238.68 212.69,246.73 192.59,251.16 148.78,260.3 99.16,247.81 69.53,213.28 46.85,187.9 39.01,149.56 52.28,117.94 67.52,79.75 105.84,53.53 145.94,47.44 145.97,47.43 146.0,47.44 146.03,47.44 152.87,46.65 159.76,46.34 166.69,46.31 L 166.78,46.31 C 168.37,46.24 170.0,46.16 171.59,46.16 z" />
</svg>
