<svg xmlns:svg="http://www.w3.org/2000/svg" xmlns="http://www.w3.org/2000/svg" height="300" width="300" >
  <path style="fill:#fff;stroke:none"
     d="M 217.07,69.36 C 212.35,65.96 205.79,67.03 202.39,71.75 198.98,76.46 200.05,83.01 204.75,86.41 242.13,113.33 254.24,162.79 233.54,203.99 222.31,226.3 203.1,242.92 179.38,250.78 155.67,258.65 130.31,256.82 107.99,245.63 85.65,234.42 69.01,215.23 61.14,191.54 53.29,167.86 55.1,142.56 66.32,120.24 79.94,93.13 106.01,74.24 136.07,69.72 136.26,69.69 136.45,69.64 136.65,69.58 L 137.09,90.33 C 137.14,92.64 138.57,94.67 140.71,95.51 142.85,96.34 145.29,95.82 146.89,94.14 L 176.8,62.95 C 179.0,60.7 178.92,57.08 176.64,54.92 L 145.4,25.03 C 143.76,23.45 141.29,23.01 139.2,23.94 138.49,24.24 137.88,24.68 137.36,25.2 136.35,26.27 135.77,27.72 135.77,29.26 L 136.21,49.02 C 135.14,48.86 134.04,48.78 132.94,48.94 96.11,54.5 64.18,77.61 47.49,110.84 19.17,167.23 42.09,236.12 98.55,264.41 114.99,272.66 132.5,276.55 149.74,276.55 191.76,276.55 232.28,253.42 252.34,213.42 277.7,162.92 262.85,102.34 217.07,69.36 z" />
</svg>
